<?xml version="1.0" encoding="UTF-8"?>
<svg id="uuid-6900b3b5-1d2e-4be2-b354-aa493da5d42f" data-name="Layer 1" xmlns="http://www.w3.org/2000/svg" width="39.002" height="43.91" viewBox="0 0 39.002 43.91" fill="#444444">
  <path d="M36.598,41.07h-12.62c-.79,1.68-2.5,2.84-4.48,2.84s-3.69-1.16-4.47-2.84H2.398c-1.84,0-3-2-2.07-3.59l4.83-8.37c.21-.37,.32-.78,.32-1.2V15.22h.05c-.03-.39-.05-.79-.05-1.2C5.478,6.28,11.758,0,19.498,0s14.02,6.28,14.02,14.02c0,.41-.02,.81-.05,1.2h.05v12.69c0,.42,.11,.83,.32,1.2l4.84,8.37c.92,1.59-.23,3.59-2.08,3.59Z"/>
</svg>