<?xml version="1.0" encoding="UTF-8"?><svg id="Layer_1" xmlns="http://www.w3.org/2000/svg" viewBox="0 0 50 49.44"><path d="M24.47,3c5.39,0,10.56,1.99,14.57,5.59,.03,.03,.06,.06,.09,.08,1.3,1.2,2.46,2.56,3.46,4.02,1.55,2.27,2.68,4.81,3.27,7.35,1.49,6.35-.5,11.94-1.81,14.71l-.48,1.02,.31,1.08,1.62,5.76,.23,.82-.53-.13-5.52-1.34h-.05l-1.32-.34-1.12,.78c-.24,.17-5.91,4.05-13.21,4.05-2.52,0-4.98-.46-7.32-1.37-8.16-3.18-13.77-11.57-13.64-20.41,.14-9.36,6.78-18.15,15.8-20.92,1.84-.49,3.74-.74,5.66-.74m0-3c-2.24,0-4.41,.3-6.48,.86h-.01C7.71,3.98,.16,13.93,0,24.62c-.14,9.69,5.8,19.45,15.55,23.25,2.93,1.14,5.77,1.58,8.41,1.58,8.1,0,14.25-4.12,14.92-4.58h.06c3.69,.91,7.37,1.8,11.06,2.7-1.08-3.84-2.16-7.67-3.25-11.51,1.14-2.4,3.85-8.93,2.03-16.69-.69-2.94-1.97-5.78-3.72-8.35-1.13-1.66-2.45-3.2-3.94-4.57-.02-.01-.03-.03-.05-.04C36.68,2.42,30.86,0,24.47,0h0Z"/></svg>