<?xml version="1.0" encoding="UTF-8"?>
<svg id="uuid-cb9b052e-7f57-49fb-86a1-7ed524176292" data-name="Layer 1" xmlns="http://www.w3.org/2000/svg" width="1492.126" height="556" xmlns:xlink="http://www.w3.org/1999/xlink" viewBox="0 0 1492.126 556">
  <defs>
    <style>
      .uuid-9a9cef17-7388-41bd-985c-328103e1d5b9 {
        filter: url(#uuid-44828f2d-efd2-42dd-b855-94333aa51212);
      }

      .uuid-9a9cef17-7388-41bd-985c-328103e1d5b9, .uuid-af734beb-6e9a-42bc-9844-7e313402a825 {
        fill: #fff;
      }

      .uuid-dee28cfa-675d-4cb0-bd5d-8f4eb28932a4 {
        filter: url(#uuid-b6e2e3a9-d0d3-4bad-9906-34d2a7010955);
      }

      .uuid-fe9d233c-2c12-42d5-868d-0bcaa3c6365b {
        fill: #007fff;
      }
    </style>
    <filter id="uuid-44828f2d-efd2-42dd-b855-94333aa51212" data-name="drop-shadow-1" filterUnits="userSpaceOnUse">
      <feOffset dx="7" dy="7"/>
      <feGaussianBlur result="uuid-d92b189b-47c4-4258-aa8b-1cdde78d858e" stdDeviation="5"/>
      <feFlood flood-color="#6e6e6e" flood-opacity=".75"/>
      <feComposite in2="uuid-d92b189b-47c4-4258-aa8b-1cdde78d858e" operator="in"/>
      <feComposite in="SourceGraphic"/>
    </filter>
    <filter id="uuid-b6e2e3a9-d0d3-4bad-9906-34d2a7010955" data-name="drop-shadow-2" filterUnits="userSpaceOnUse">
      <feOffset dx="7" dy="7"/>
      <feGaussianBlur result="uuid-5287397a-f283-4cd4-8724-1fc3dbf3940d" stdDeviation="5"/>
      <feFlood flood-color="#6e6e6e" flood-opacity=".75"/>
      <feComposite in2="uuid-5287397a-f283-4cd4-8724-1fc3dbf3940d" operator="in"/>
      <feComposite in="SourceGraphic"/>
    </filter>
  </defs>
  <rect x="1069.57" y="8.135" width="400" height="525" fill="#fff" filter="#uuid-44828f2d-efd2-42dd-b855-94333aa51212"/>
  <rect x="1094.57" y="34.713" width="350" height="350" fill="#007fff"/>
  <path d="M370.376,325.78v8.96c-.15-1.47-.22-2.97-.22-4.48s.07-3.01,.22-4.48Z" fill="#fff"/>
  <g filter="#uuid-b6e2e3a9-d0d3-4bad-9906-34d2a7010955">
    <path d="M56.885,94.07V471.023H0V94.07H56.885Z" fill="#007fff"/>
    <path d="M136.963,233.23h55.176v21.973c19.203-19.043,40.852-28.564,64.941-28.564,27.668,0,49.232,8.709,64.697,26.123,13.344,14.812,20.02,38.982,20.02,72.51v145.751h-55.176v-132.812c0-23.438-3.258-39.631-9.766-48.584-6.348-9.113-17.906-13.672-34.668-13.672-18.23,0-31.17,6.023-38.818,18.066-7.488,11.883-11.23,32.635-11.23,62.256v114.746h-55.176V233.23Z" fill="#007fff"/>
    <path d="M549.316,273.758l-45.41,24.17c-7.164-14.648-16.033-21.973-26.611-21.973-5.047,0-9.361,1.671-12.939,5.005-3.582,3.338-5.371,7.61-5.371,12.817,0,9.117,10.578,18.15,31.738,27.1,29.133,12.535,48.744,24.09,58.838,34.668,10.09,10.582,15.137,24.822,15.137,42.724,0,22.949-8.465,42.156-25.391,57.617-16.441,14.648-36.297,21.973-59.57,21.973-39.879,0-68.115-19.447-84.717-58.35l46.875-21.729c6.508,11.395,11.475,18.639,14.893,21.729,6.672,6.188,14.648,9.277,23.926,9.277,18.555,0,27.832-8.461,27.832-25.391,0-9.766-7.164-18.879-21.484-27.344-5.535-2.766-11.07-5.451-16.602-8.056-5.535-2.602-11.15-5.287-16.846-8.057-15.953-7.812-27.184-15.625-33.691-23.438-8.301-9.926-12.451-22.705-12.451-38.33,0-20.668,7.08-37.758,21.24-51.27,14.484-13.508,32.062-20.264,52.734-20.264,30.434,0,53.059,15.709,67.871,47.119Z" fill="#007fff"/>
    <path d="M670.654,284.5v186.523h-54.932v-186.523h-23.438v-51.27h23.438v-87.158h54.932v87.158h42.725v51.27h-42.725Z" fill="#007fff"/>
    <path d="M930.42,233.23h55.176v237.792h-55.176v-24.902c-22.625,21.16-46.959,31.738-72.998,31.738-32.879,0-60.059-11.879-81.543-35.645-21.324-24.25-31.982-54.523-31.982-90.82,0-35.645,10.658-65.346,31.982-89.111,21.32-23.762,48.012-35.645,80.078-35.645,27.668,0,52.49,11.395,74.463,34.18v-27.588Zm-130.371,118.164c0,22.789,6.104,41.343,18.311,55.664,12.531,14.488,28.32,21.729,47.363,21.729,20.344,0,36.781-6.996,49.316-20.996,12.531-14.484,18.799-32.875,18.799-55.175s-6.268-40.688-18.799-55.176c-12.535-14.16-28.809-21.24-48.828-21.24-18.883,0-34.668,7.164-47.363,21.484-12.535,14.488-18.799,32.391-18.799,53.711Z" fill="#007fff"/>
  </g>
</svg>