<?xml version="1.0" encoding="utf-8"?>
<!-- Generator: Adobe Illustrator 26.3.1, SVG Export Plug-In . SVG Version: 6.00 Build 0)  -->
<svg version="1.1" id="Layer_1" xmlns="http://www.w3.org/2000/svg" xmlns:xlink="http://www.w3.org/1999/xlink" x="0px" y="0px"
	 viewBox="0 0 100 100" style="enable-background:new 0 0 100 100;" xml:space="preserve">
<style type="text/css">
	.st0{fill:#FFFFFF;}
</style>
<g>
	<path class="st0" d="M10.61,52.46C5.55,47.4,2.76,40.67,2.76,33.51c0-7.16,2.79-13.88,7.85-18.94c5.06-5.06,11.79-7.85,18.94-7.85
		c7.16,0,13.88,2.79,18.94,7.85l1.77,1.77l1.77-1.77c5.06-5.06,11.79-7.85,18.94-7.85c7.16,0,13.88,2.79,18.94,7.85
		c5.06,5.06,7.85,11.79,7.85,18.94c0,7.16-2.79,13.88-7.85,18.94L50.26,92.11L10.61,52.46z"/>
	<path d="M70.97,9.22c6.49,0,12.59,2.53,17.18,7.11c9.47,9.47,9.47,24.88,0,34.35L50.26,88.57L12.38,50.69
		c-9.47-9.47-9.47-24.88,0-34.35c4.59-4.59,10.69-7.11,17.18-7.11s12.59,2.53,17.18,7.11l3.54,3.54l3.54-3.54
		C58.39,11.75,64.49,9.22,70.97,9.22 M70.97,4.22c-7.5,0-14.99,2.86-20.71,8.58c-5.72-5.72-13.21-8.58-20.71-8.58
		S14.56,7.08,8.84,12.8C-2.6,24.24-2.6,42.79,8.84,54.22l41.42,41.42l41.42-41.42c11.44-11.44,11.44-29.98,0-41.42
		C85.96,7.08,78.47,4.22,70.97,4.22L70.97,4.22z"/>
</g>
</svg>
