<?xml version="1.0" encoding="UTF-8"?>
<svg id="uuid-5a69f96a-4a47-47ac-a782-f98cb92ec709" data-name="Layer 1" xmlns="http://www.w3.org/2000/svg" width="36.418" height="35.982" viewBox="0 0 36.418 35.982" fill="#444444">
  <path d="M4.025,4.028c-5.367,5.367-5.367,14.079,0,19.445,5.02,5.02,12.968,5.346,18.371,.962l11.547,11.547,2.475-2.475-11.597-11.597c3.981-5.381,3.521-13.011-1.351-17.883C18.104-1.339,9.399-1.346,4.025,4.028Zm18.279,15.365c-.375,.573-.813,1.11-1.308,1.605-.347,.347-.707,.665-1.089,.948-4.016,3.026-9.751,2.708-13.407-.948-4.002-4.002-4.002-10.493,0-14.496s10.493-4.002,14.496,0c3.507,3.507,3.939,8.917,1.308,12.891Z"/>
</svg>